<svg xmlns="http://www.w3.org/2000/svg" xmlns:xlink="http://www.w3.org/1999/xlink" width="360" height="66" viewBox="0 0 360 66"><defs><clipPath id="b"><rect width="360" height="66"/></clipPath></defs><g id="a" clip-path="url(#b)"><g transform="translate(-755 -507)"><path d="M16.49,21.76s-.27-3.09-4-6.06c-3-2.41-10-7.31-9.68-11.51L3.16,0c.72,2.19,5.69,5.25,8,7.08S15.71,11,16,15.19s.48,6.57.48,6.57" transform="translate(755.014 507)" fill="#fff" fill-rule="evenodd"/><path d="M18,42.69s-.35-4.1-5.25-8c-4-3.2-11.52-8-11.12-13.57l.49-6.77c1,2.91,5.75,6.48,8.79,8.9S17,28.37,17.37,34s.63,8.72.63,8.72" transform="translate(755.014 507)" fill="#fff" fill-rule="evenodd"/><path d="M19.91,66.23s-.68-3.39-6.63-8.19C8.45,54.16-.42,47.83,0,41.05l.59-9.33c1.16,3.54,7,7.88,10.68,10.83s7.37,6.27,7.86,13.08.76,10.6.76,10.6" transform="translate(755.014 507)" fill="#fff" fill-rule="evenodd"/><path d="M3.65,0h19.6V-6.55H11.1V-37H3.65Zm25.9,0H37V-37H29.55ZM82.5-25.65C80.1-32.4,72.75-37.7,64.4-37.7c-10.8,0-19.6,8.05-19.6,19.1A19.168,19.168,0,0,0,64.3.7c6.65,0,14.6-3.4,18.05-11.1A21.958,21.958,0,0,0,84-19.7H61.6v6H75.4a9.8,9.8,0,0,1-3.8,5.6,12.236,12.236,0,0,1-7.35,2.25c-5.9,0-12-4.4-12-12.75,0-8.05,6.05-12.55,12-12.55a11.19,11.19,0,0,1,7.1,2.45,12.286,12.286,0,0,1,2.75,3.05ZM99.1,0V-15.6h14.25V0h7.45V-37h-7.45v14.85H99.1V-37H91.65V0Zm36.1,0h7.45V-30.45h7.95V-37H127.2v6.55h8Zm29.25,0V-15.6H178.7V0h7.45V-37H178.7v14.85H164.45V-37H157V0Zm29.5-18.15A19.006,19.006,0,0,0,213.3.7a19.085,19.085,0,0,0,19.5-19.2,19.1,19.1,0,0,0-19.45-19.2,19.031,19.031,0,0,0-19.4,19.5Zm7.45-.4c0-6.5,4.6-12.6,12-12.6,7.55,0,11.95,6.5,11.95,12.7,0,6.1-4.4,12.6-11.9,12.6-7.2,0-12.05-5.9-12.05-12.65ZM240.55-37v22.75c0,4.95.5,8.15,3.9,11.4C247.2,0,251.45.7,254.1.7a13.318,13.318,0,0,0,9.5-3.55c2.85-2.6,3.9-5.9,3.9-11.4V-37h-7.45v22.75c0,2,0,3.95-1.05,5.75a5.3,5.3,0,0,1-4.95,2.65,5.463,5.463,0,0,1-5-2.8,11.187,11.187,0,0,1-1.05-5.6V-37ZM274.9-11.5C274.85-4.35,279.2.7,287.6.7c8.7,0,12.35-5.55,12.35-11.5,0-5.25-3.15-7.95-8.8-10.4-6.25-2.6-8.25-3.3-8.2-6.05a4.309,4.309,0,0,1,4.55-4.2c3.65,0,4.3,2.85,4.6,4.55h7.35c-.3-8.2-6.8-10.8-11.7-10.8-6,0-12.25,3.85-12.25,10.95,0,7,6.45,9.3,9.25,10.3,5.15,2.05,7.8,2.85,7.8,6a5.006,5.006,0,0,1-5.05,4.9c-1.6,0-4.95-.95-5.2-5.95ZM307.35,0H328.1V-6.55H314.8V-15.5h13.05v-6.55H314.8v-8.4h13.3V-37H307.35Z" transform="translate(789.144 559.35)" fill="#fff"/></g></g></svg>