<svg width="489" height="145" viewBox="0 0 489 145" fill="none" xmlns="http://www.w3.org/2000/svg">
<path d="M50.2 52.1997C51.5 52.2997 52.8 52.3997 54 52.6997C58.4 53.6997 62.2 56.3997 64.6 60.1997C66.4 62.9997 67.3 66.1997 67.3 69.5997C67.3 71.6997 66.9 73.6997 66.1 75.5997C62.5 83.6997 57.5 84.2997 57.5 84.2997V85.0997C59.8 85.4997 61.9 86.5997 63.6 88.0997C67.1 91.3997 69.2 95.9997 69.2 100.9C69.1 103.4 68.6 106 67.7 108.3C66.5 111.5 64.3 114.3 61.6 116.3C59.3 117.9 56.6 118.8 53.8 118.9H0.0999756V117.6C2.39998 117 4.09997 115 4.19997 112.6V62.1997C4.29997 60.5997 4.09997 58.9997 3.69997 57.4997C2.29997 53.5997 0.0999756 54.0997 0.0999756 54.0997V52.2997L50.2 52.1997ZM21.1 65.5997V78.1997H43.9C47.4 78.3997 50.4 75.6997 50.6 72.2997C50.6 72.0997 50.6 71.8997 50.6 71.6997C50.7 68.3997 48.1 65.5997 44.8 65.4997H44.7C44.4 65.4997 44.1 65.4997 43.8 65.4997L21.1 65.5997ZM21.1 91.8997V105.9H45.3C49.2 105.7 52.3 102.5 52.3 98.4997C52.1 94.7997 49.1 91.8997 45.4 91.8997H21.1Z" fill="black"/>
<path d="M147.6 58.0999C151.5 62.3999 153.6 67.9999 153.6 73.7999C153.6 78.0999 152.1 82.2999 149.5 85.7999C146.5 90.3999 141.4 93.1999 135.9 93.2999V93.9999C135.9 93.9999 150.8 114.8 152.2 116.3C152.9 117.2 154 117.8 155.2 117.8V118.8H129.2C129.8 116.9 130.4 117.1 130.4 115.8C130.2 115 129.9 114.2 129.5 113.5C127.8 110.3 115.5 93.4999 115.5 93.4999H105.6V113.2C105.6 114.6 109.4 117.6 109.4 117.6V118.9H84.3V117.7C86.7 116.9 88.5 114.9 89 112.4V62.4999C89.1 60.8999 88.9001 59.3999 88.6001 57.7999C87.6001 53.4999 84.8 53.5999 84.8 53.5999V52.3999H135C139.9 52.5999 144.5 54.6999 147.8 58.1999M105.6 65.5999V79.2999H130.2C133.5 79.5999 136.5 77.0999 136.7 73.6999C136.7 73.2999 136.7 72.8999 136.7 72.4999C136.7 67.1999 130.7 65.5999 129.2 65.5999H105.3" fill="black"/>
<path d="M169.5 52.1997V52.8997H169.9C172.1 54.5997 173.5 57.1997 173.6 59.9997V106.8C173.6 108.8 173.4 110.7 173 112.7C172.5 114.3 171.7 117.4 168.6 118.1V118.8H194.2V118C193.1 117.4 192.1 116.5 191.5 115.3C190 112.1 189.4 108.6 189.6 105.1V61.0997C189.6 61.0997 189.3 53.1997 193.7 53.0997V52.2997H169.5V52.1997Z" fill="black"/>
<path d="M378.3 52.1997V52.8997C380.5 54.5997 381.9 57.1997 382 59.9997V106.8C382 108.8 381.9 110.7 381.4 112.7C380.9 114.3 380.1 117.4 376.9 118.1V118.8H402.6V118C401.4 117.4 400.5 116.5 399.8 115.3C398.3 112.1 397.7 108.6 397.9 105.1V61.0997C397.9 61.0997 397.6 53.1997 402 53.0997V52.2997H378.3V52.1997Z" fill="black"/>
<path d="M273.1 52.1997V70.5997H272C272 70.5997 271.7 66.9997 265.6 66.5997H249.6V109.6C249.6 111 249.8 112.5 250.1 113.9C250.7 116.1 252.5 117.8 254.8 118.2V118.8H228.5V118.2C230.7 117.8 232.5 116.1 233.2 113.9C233.5 112.5 233.7 111.1 233.7 109.6V66.5997H217.7C211.7 67.0997 211.3 70.5997 211.3 70.5997H210.1V52.1997H273.1Z" fill="black"/>
<path d="M283.1 52.2001V53.2001C283.6 53.3001 284.2 53.6001 284.6 53.8001C285.9 54.8001 286.9 56.0001 287.6 57.5001C289.7 60.8001 308.8 107.8 308.8 107.8C309.7 110.1 310.2 112.4 310.3 114.9C310.5 116.2 309.9 117.4 308.8 118.1V118.8H339.6V118C338.3 117.1 337.6 115.7 337.6 114.1C337.8 112.4 338.2 110.8 338.8 109.2L357.2 63.0001C357.2 63.0001 360.7 54.7001 364.8 53.1001V52.1001H339.7V52.9001C341.2 53.7001 342.2 55.4001 342.1 57.1001C341.9 58.9001 341.5 60.8001 340.7 62.4001L325 101.7C324.9 102 324.6 102.2 324.3 102.2C323.9 102.2 323.7 101.6 323.7 101.6L306.7 58.4001C306.4 57.7001 306.3 56.9001 306.3 56.1001C306.3 54.8001 307.4 53.9001 308.7 53.1001V52.2001H283.1Z" fill="black"/>
<path d="M411.1 11.1C411.4 12 411.5 13 411.6 13.9C411.7 16.7 411.5 19.5 411.1 22.3C411.1 22.6 410.8 24.8 411.9 24.9C412.7 25 413.4 25.1 414.2 25.3C415.4 25.7 424.4 27.3 436.4 45L436.9 45.5C437 45.6 437.1 45.6 437.2 45.5C437.5 45.5 437.8 45.2 438 45.1C438.2 45 441 43.3 441.4 41.3V40.6C441.3 39.4 440.9 38.2 440.3 37.2C439.8 36.1 439.2 34.9 438.5 33.9L436.5 30.9C436.5 30.9 426.1 15.7 413.8 11.7C412.9 11.4 411.9 11.2 410.9 11" fill="black"/>
<path d="M440.9 34.4C445.1 37.5 450.3 38.6 455.4 37.5C462 35.9 472.4 28.1 478.5 0C478.5 0 434.4 5.8 441 34.2L440.9 34.4Z" fill="black"/>
<path d="M489 139.4H0V144.4H489V139.4Z" fill="black"/>
<path d="M470.7 73.7999C469.4 62.4999 460.7 61.2999 453.4 61.2999C441.6 62.0999 432.7 72.1999 433.4 83.9999C434.1 94.6999 442.6 103.3 453.4 104C461.2 103.7 468.5 100.2 473.6 94.3999L484 103.8C476.6 113.1 465.3 118.5 453.3 118.4C433.6 119.6 416.6 104.7 415.4 84.9999C414.2 65.2999 429.1 48.2999 448.8 47.0999C450.3 46.9999 451.8 46.9999 453.3 47.0999C465 46.6999 476.3 51.4999 484.1 60.2999L470.7 73.7999Z" fill="black"/>
<path d="M469.8 122.3C469.8 125.3 472.2 127.7 475.2 127.7C478.2 127.7 480.6 125.3 480.6 122.3C480.6 119.3 478.2 116.9 475.2 116.9C472.2 116.9 469.8 119.3 469.8 122.3ZM470.5 122.3C470.5 119.7 472.6 117.6 475.2 117.6C477.8 117.6 479.9 119.7 479.9 122.3C479.9 124.9 477.8 127 475.2 127C472.6 127 470.5 124.9 470.5 122.3Z" fill="black"/>
<path d="M478.7 124.1H478.1V121L476.9 124.1H476.7L475.6 121V124.1H475V120.4H475.9L476.9 123L478 120.4H478.9L478.7 124.1ZM474.3 120.9H473.1V124H472.5V120.9H471.3V120.4H474.3V120.9Z" fill="black"/>
</svg>
