<svg width="299" height="175" viewBox="0 0 299 175" fill="none" xmlns="http://www.w3.org/2000/svg">
<g clip-path="url(#clip0_13_37)">
<path d="M101.85 15.48H83.05V0H101.85V15.48ZM83.05 26.07H101.85V94.48H83.05V26.07Z" fill="black"/>
<path d="M116.85 38.64H105.57V26.07H116.85V20.77C116.85 8.6 124.36 0 139.71 0C143.02 0 146.46 0.4 149.63 0.53V14.53C147.346 14.2622 145.049 14.1287 142.75 14.13C137.59 14.13 135.61 16.25 135.61 21.94V26.04H148.61V38.64H135.61V94.48H116.85V38.64Z" fill="black"/>
<path d="M154.44 38.64H143.19V26.07H154.44V20.77C154.44 8.6 161.98 0 177.33 0C180.64 0 184.08 0.4 187.25 0.53V14.53C184.966 14.2622 182.669 14.1287 180.37 14.13C175.21 14.13 173.23 16.25 173.23 21.94V26.04H186.23V38.64H173.23V94.48H154.44V38.64Z" fill="black"/>
<path d="M31.22 73.51L28.27 77.01H50.76C55.5176 76.9579 60.2252 77.9835 64.53 80.01C66.9474 81.1807 69.1946 82.6744 71.21 84.45C74.371 87.2503 76.912 90.6803 78.67 94.52H0.619995V78.05L4.43 73.51L7.43 69.94L51.29 17.47H4.6V0H78.95V16.39L34.2 69.91L31.22 73.51Z" fill="black"/>
<path d="M80.42 103.11H56.42C61.59 108.55 63.6 116.9 63.6 127.27C63.6 148.17 52.06 155.58 40.03 155.58H21.5V103.11H0.710007V173.05H41.47C70.3 173.05 84.34 152.67 84.34 125.29C84.4839 117.712 83.1525 110.179 80.42 103.11Z" fill="black"/>
<path d="M148.63 157.84V122.24C148.63 108.55 137.26 104.18 125.63 103.11C123.303 102.888 120.967 102.784 118.63 102.8C118.34 102.785 118.05 102.785 117.76 102.8C102.68 102.97 87.5 108.49 86.46 125.64H105.25C105.91 118.22 110.41 115.31 117.69 115.31C124.31 115.31 129.86 116.63 129.86 124.6C130.65 139.92 84.63 123.25 84.35 154.37C84.35 168.37 94.54 174.86 107.64 174.86C116.1 174.86 124.64 172.61 130.64 166.4C130.815 168.651 131.258 170.874 131.96 173.02H151.02C149.29 170.28 148.63 164.04 148.63 157.84ZM129.85 146.57C129.85 150.8 129.33 162.34 114.63 162.34C108.57 162.34 103.12 160.47 103.12 153.61C103.12 146.75 108.43 144.61 114.25 143.52C120.07 142.43 126.69 142.34 129.85 139.52V146.57Z" fill="black"/>
<path d="M195.17 104.63L180.75 151.35H180.48L166.06 104.63H146.34L169.77 173.05H190.67L213.85 104.63H195.17Z" fill="black"/>
<path d="M214.23 104.63V173.05H233.02V104.63H214.23ZM214.23 78.5698V94.0598H233.02V78.5698H214.23Z" fill="black"/>
<path d="M276.93 131.91C266.36 129.41 255.62 128.47 255.62 121.75C255.62 116.03 261.86 115.37 266.08 115.37C272.84 115.37 278.39 117.37 278.91 124.66H296.79C295.34 107.85 281.44 102.83 266.6 102.83C251.76 102.83 236.85 107.27 236.85 124.74C236.85 136.94 247.56 140.51 258.55 143C271.91 145.77 279.85 147.91 279.85 153.61C279.85 160.19 272.85 162.34 267.55 162.34C260.27 162.34 253.13 158.88 253.13 150.8H235.24C235.9 168.91 251.53 174.91 267.4 174.91C282.89 174.91 298.63 169.09 298.63 151.1C298.63 138.39 287.92 134.41 276.93 131.91Z" fill="black"/>
<path d="M101.23 15.5298H82.44V0.0498047H101.23V15.5298ZM82.44 26.1198H101.23V94.5298H82.44V26.1198Z" fill="black"/>
<path d="M116.2 38.6898H104.96V26.1198H116.2V20.8298C116.2 8.64981 123.75 0.0498047 139.09 0.0498047C142.4 0.0498047 145.84 0.449805 149.02 0.579805V14.5798C146.736 14.312 144.439 14.1785 142.14 14.1798C136.98 14.1798 134.99 16.2998 134.99 21.9898V26.0898H147.99V38.6898H134.99V94.5298H116.2V38.6898Z" fill="black"/>
<path d="M153.85 38.6898H142.58V26.1198H153.85V20.8298C153.85 8.64981 161.37 0.0498047 176.71 0.0498047C180.02 0.0498047 183.46 0.449805 186.64 0.579805V14.5798C184.356 14.312 182.059 14.1785 179.76 14.1798C174.6 14.1798 172.61 16.2998 172.61 21.9898V26.0898H185.61V38.6898H172.61V94.5298H153.85V38.6898Z" fill="black"/>
<path d="M30.61 73.5598L27.61 77.0598H50.14C54.9008 77.0076 59.6118 78.0332 63.92 80.0598C66.3354 81.2341 68.5821 82.7275 70.6 84.4998C73.761 87.3001 76.302 90.7301 78.06 94.5698H0V78.0998L3.85 73.5598L6.85 69.9898L50.67 17.5198H3.99V0.0498047H78.33V16.4398L33.59 69.9898L30.61 73.5598Z" fill="black"/>
<path d="M79.85 103.16H55.85C61.01 108.6 63.02 116.95 63.02 127.32C63.02 148.22 51.48 155.63 39.46 155.63H20.85V103.16H0.0899963V173.1H40.85C69.69 173.1 83.72 152.72 83.72 125.34C83.8786 117.766 82.5642 110.233 79.85 103.16Z" fill="black"/>
<path d="M148.02 157.91V122.31C148.02 108.62 136.65 104.25 125.02 103.18C122.693 102.958 120.357 102.855 118.02 102.87C117.734 102.855 117.446 102.855 117.16 102.87C102.08 103.05 86.9 108.56 85.86 125.71H104.64C105.3 118.3 109.81 115.39 117.09 115.39C123.71 115.39 129.25 116.7 129.25 124.67C130.05 139.99 84.02 123.32 83.74 154.45C83.74 168.45 93.93 174.93 107.04 174.93C115.49 174.93 124.04 172.68 130.04 166.47C130.214 168.721 130.657 170.944 131.36 173.09H150.42C148.68 170.33 148.02 164.09 148.02 157.91ZM129.23 146.64C129.23 150.87 128.71 162.41 114.02 162.41C107.95 162.41 102.51 160.54 102.51 153.68C102.51 146.82 107.81 144.68 113.64 143.59C119.47 142.5 126.08 142.41 129.23 139.64V146.64Z" fill="black"/>
<path d="M194.56 104.69L180.14 151.41H179.85L165.43 104.69H145.72L169.15 173.1H190.05L213.2 104.69H194.56Z" fill="black"/>
<path d="M213.62 104.69V173.1H232.41V104.69H213.62ZM213.62 78.6201V94.1101H232.41V78.6201H213.62Z" fill="black"/>
<path d="M276.32 131.91C265.75 129.41 255 128.48 255 121.75C255 116.03 261.24 115.38 265.47 115.38C272.23 115.38 277.77 117.38 278.29 124.66H296.18C294.72 107.91 280.85 102.85 265.99 102.85C251.13 102.85 236.22 107.32 236.22 124.79C236.22 136.99 246.93 140.56 257.91 143.05C271.29 145.83 279.23 147.94 279.23 153.66C279.23 160.24 272.23 162.39 266.93 162.39C259.65 162.39 252.51 158.93 252.51 150.85H234.62C235.28 168.98 250.91 174.94 266.79 174.94C282.28 174.94 298.02 169.12 298.02 151.13C298.02 138.44 287.31 134.46 276.32 131.91Z" fill="black"/>
</g>
<defs>
<clipPath id="clip0_13_37">
<rect width="298.63" height="174.94" fill="white"/>
</clipPath>
</defs>
</svg>
