<svg width="127" height="156" viewBox="0 0 127 156" fill="none" xmlns="http://www.w3.org/2000/svg">
<g clip-path="url(#clip0_12_2)">
<path fill-rule="evenodd" clip-rule="evenodd" d="M62.4322 0.993164H62.3212H62.2096C56.3843 1.12271 49.93 7.17924 50.3699 15.3434C50.6011 19.6286 52.6626 23.2841 53.9058 27.1182C55.3062 31.4329 56.5361 35.8409 57.6242 40.3032C59.8474 49.4219 61.4536 58.8051 62.3212 68.305C63.1888 58.8051 64.7951 49.4219 67.0182 40.3032C68.1071 35.8409 69.3363 31.4329 70.736 27.1182C71.9799 23.2841 74.0407 19.6286 74.2719 15.3434C74.7124 7.17924 68.2582 1.12271 62.4322 0.993164ZM68.96 57.2223C69.8677 55.6953 70.849 54.2105 71.9057 52.7828C73.0547 51.2322 74.2913 49.7488 75.6242 48.356C77.0325 46.8853 78.5458 45.516 80.1647 44.2843C81.8599 42.9942 83.6699 41.8551 85.577 40.908C87.5969 39.9045 89.7225 39.1178 91.9109 38.5694C93.072 38.2788 94.251 38.0546 95.4368 37.8969C97.0063 37.6874 98.5009 37.6277 99.9299 36.8444C102.18 35.6113 103.804 33.1284 103.324 30.4925C102.728 27.2149 99.178 25.1206 95.394 25.8147C66.1306 32.6028 63.9101 67.9486 63.8927 68.305C64.0063 67.9204 64.1286 67.5627 64.255 67.2056C64.5404 66.3873 64.8526 65.5771 65.1828 64.7757C65.662 63.6118 66.18 62.464 66.7348 61.3343C67.4213 59.9341 68.1619 58.5621 68.96 57.2223ZM100.104 40.8416C73.7345 40.8416 65.7616 68.305 65.7616 68.305C65.7616 68.305 73.7345 51.0987 100.104 51.0987C103.737 51.0987 106.683 48.803 106.683 45.9704C106.683 43.1378 103.737 40.8416 100.104 40.8416ZM70.0448 38.5674C69.8289 39.395 69.6231 40.2247 69.4266 41.057C69.3283 41.4698 69.2334 41.8833 69.1398 42.2975C69.0542 42.6767 69.0202 43.1251 68.8798 43.4862C69.0248 43.113 69.212 42.7539 69.3958 42.4002C69.958 41.3215 70.6036 40.2864 71.2854 39.2816C72.4171 37.6176 73.6677 36.0355 74.9878 34.5199C76.8447 32.3914 78.8473 30.3932 80.9421 28.5036C82.2282 27.3444 83.551 26.2268 84.9012 25.1455C86.1458 24.1514 87.365 23.2532 88.2439 21.8873C89.7298 19.5803 90.288 16.0362 88.0033 14.0198C87.7486 13.7949 87.4679 13.6016 87.1678 13.4432C84.3758 11.9712 80.9695 13.6748 79.1153 15.8784C78.2196 16.9437 77.6361 18.1841 77.0365 19.4239C76.3714 20.7945 75.7398 22.1799 75.1409 23.5808C73.7439 26.843 72.524 30.1804 71.4699 33.5701C70.9552 35.224 70.4807 36.8907 70.0448 38.5674ZM24.5394 40.8416C20.9045 40.8416 17.9588 43.1378 17.9588 45.9704C17.9588 48.803 20.9045 51.0987 24.5394 51.0987C50.9079 51.0987 58.8815 68.305 58.8815 68.305C58.8815 68.305 50.9079 40.8416 24.5394 40.8416ZM39.7413 25.1455C41.0922 26.2268 42.415 27.3444 43.701 28.5036C45.7959 30.3932 47.7978 32.3914 49.654 34.5199C50.9755 36.0355 52.2247 37.6176 53.3564 39.2816C54.0395 40.2864 54.6839 41.3215 55.246 42.4002C55.4305 42.7539 55.6183 43.113 55.7627 43.4862C55.6223 43.1251 55.5882 42.6767 55.5027 42.2975C55.4091 41.8833 55.3148 41.4698 55.2159 41.057C55.0194 40.2247 54.8142 39.395 54.5976 38.5674C54.1618 36.8907 53.6872 35.224 53.1726 33.5701C52.1191 30.1804 50.8986 26.843 49.5016 23.5808C48.9027 22.1799 48.2704 20.7945 47.6059 19.4239C47.0057 18.1841 46.4228 16.9437 45.5265 15.8784C43.673 13.6748 40.266 11.9712 37.474 13.4432C37.1746 13.6016 36.8932 13.7949 36.6392 14.0198C34.3545 16.0362 34.9126 19.5803 36.3992 21.8873C37.2775 23.2532 38.4967 24.1514 39.7413 25.1455ZM60.7504 68.305C60.6355 67.9204 60.5132 67.5627 60.3882 67.2056C60.1027 66.3873 59.7899 65.5771 59.4604 64.7757C58.9805 63.6118 58.4624 62.464 57.9077 61.3343C57.2212 59.9341 56.4806 58.5621 55.6831 57.2223C54.7748 55.6953 53.7935 54.2105 52.7361 52.7828C51.5884 51.2322 50.3512 49.7488 49.0183 48.356C47.61 46.8853 46.0973 45.516 44.4777 44.2843C42.7833 42.9942 40.9732 41.8551 39.0655 40.908C37.0462 39.9045 34.9193 39.1178 32.7322 38.5694C31.5705 38.2788 30.3921 38.0546 29.205 37.8969C27.6362 37.6874 26.1416 37.6277 24.7132 36.8444C22.4626 35.6113 20.8384 33.1284 21.3183 30.4925C21.9145 27.2149 25.4652 25.1206 29.2491 25.8147C58.5112 32.6028 60.7324 67.9486 60.7504 68.305Z" fill="black"/>
<mask id="mask0_12_2" style="mask-type:luminance" maskUnits="userSpaceOnUse" x="50" y="0" width="25" height="69">
<path d="M62.3209 0.994141H62.2106C56.384 1.12302 49.9297 7.17955 50.3709 15.3438C50.6022 19.6282 52.6622 23.2858 53.9055 27.1178C55.3065 31.4325 56.5351 35.8405 57.6232 40.3035C59.8478 49.4222 61.454 58.8061 62.3209 68.3047C63.1885 58.8061 64.7961 49.4222 67.0186 40.3035C68.1081 35.8405 69.336 31.4325 70.737 27.1178C71.9803 23.2858 74.041 19.6282 74.2716 15.3438C74.7128 7.17955 68.2585 1.12302 62.4319 0.994141H62.3209Z" fill="white"/>
</mask>
<g mask="url(#mask0_12_2)">
<path fill-rule="evenodd" clip-rule="evenodd" d="M76.0186 46.4606L75.0801 44.9335L61.8521 53.132L62.7905 54.6597L76.0186 46.4606ZM76.0186 42.1318L75.0801 40.6041L61.8521 48.8032L62.7905 50.3309L76.0186 42.1318ZM76.0186 37.803L75.0801 36.2753L61.8521 44.4744L62.7905 46.0021L76.0186 37.803ZM76.0186 33.4736L75.0801 31.9465L61.8521 40.1456L62.7905 41.6733L76.0186 33.4736ZM76.0186 29.1448L75.0801 27.6171L61.8521 35.8168L62.7905 37.3439L76.0186 29.1448ZM76.0186 24.8153L75.0801 23.2883L61.8521 31.4874L62.7905 33.0151L76.0186 24.8153ZM76.0186 -1.158L75.0801 -2.68506L61.8521 5.51405L62.7905 7.04177L76.0186 -1.158ZM76.0186 3.17145L75.0801 1.64372L61.8521 9.84283L62.7905 11.3706L76.0186 3.17145ZM76.0186 7.50022L75.0801 5.97317L61.8521 14.1716L62.7905 15.6993L76.0186 7.50022ZM76.0186 11.829L75.0801 10.3013L61.8521 18.5011L62.7905 20.0288L76.0186 11.829ZM76.0186 16.1578L75.0801 14.6307L61.8521 22.8298L62.7905 24.3569L76.0186 16.1578ZM62.7905 28.6863L61.8521 27.1586L75.0801 18.9595L76.0186 20.4872L62.7905 28.6863Z" fill="#171717"/>
</g>
<mask id="mask1_12_2" style="mask-type:luminance" maskUnits="userSpaceOnUse" x="65" y="40" width="42" height="29">
<path d="M65.7613 68.3046C65.7613 68.3046 73.7355 51.0989 100.103 51.0989C103.738 51.0989 106.684 48.8033 106.684 45.97C106.684 43.1374 103.738 40.8418 100.103 40.8418C73.7355 40.8418 65.7613 68.3046 65.7613 68.3046Z" fill="white"/>
</mask>
<g mask="url(#mask1_12_2)">
<path fill-rule="evenodd" clip-rule="evenodd" d="M108.683 48.4829L102.643 43.7266L101.539 45.1388L107.582 49.8952L108.683 48.4829ZM104.732 49.7569L98.6916 45.0006L97.588 46.4135L103.629 51.1699L104.732 49.7569ZM100.78 51.0316L94.7405 46.2752L93.637 47.6875L99.6775 52.4445L100.78 51.0316ZM96.8307 52.3063L90.7888 47.5492L89.6859 48.9622L95.7265 53.7185L96.8307 52.3063ZM92.8776 53.5809L86.8371 48.8239L85.7349 50.2368L91.7754 54.9932L92.8776 53.5809ZM88.9266 54.8549L82.8861 50.0986L81.7832 51.5108L87.8237 56.2679L88.9266 54.8549ZM83.8727 57.5425L77.8328 52.7855L78.9344 51.3732L84.9756 56.1296L83.8727 57.5425Z" fill="#171717"/>
</g>
<mask id="mask2_12_2" style="mask-type:luminance" maskUnits="userSpaceOnUse" x="17" y="40" width="42" height="29">
<path d="M17.9598 45.97C17.9598 48.8033 20.9055 51.0989 24.5384 51.0989C50.909 51.0989 58.8805 68.3046 58.8805 68.3046C58.8805 68.3046 50.909 40.8418 24.5384 40.8418C20.9055 40.8418 17.9598 43.1374 17.9598 45.97Z" fill="white"/>
</mask>
<g mask="url(#mask2_12_2)">
<path fill-rule="evenodd" clip-rule="evenodd" d="M37.6641 49.0899C37.2623 49.0678 36.9168 49.4356 36.8907 49.9102C36.8653 50.3854 37.1688 50.7888 37.5698 50.811C37.9715 50.8331 38.3184 50.4653 38.3445 49.9907C38.3706 49.5155 38.0665 49.1121 37.6641 49.0899ZM34.469 48.9141C34.0666 48.8919 33.7217 49.2591 33.6956 49.7343C33.6682 50.2095 33.9737 50.613 34.3741 50.6351C34.7758 50.6566 35.1214 50.2894 35.1468 49.8142C35.1729 49.3396 34.8687 48.9362 34.469 48.9141ZM31.272 48.7382C30.8709 48.716 30.524 49.0832 30.4979 49.5584C30.4725 50.0337 30.7767 50.4364 31.1777 50.4586C31.5788 50.4807 31.925 50.1136 31.9511 49.6383C31.9771 49.1631 31.673 48.7603 31.272 48.7382ZM28.0756 48.5617C27.6752 48.5402 27.3283 48.9073 27.3022 49.3826C27.2761 49.8578 27.5803 50.2606 27.9827 50.2827C28.3824 50.3049 28.7293 49.9377 28.7553 49.4625C28.7807 48.9872 28.4766 48.5838 28.0756 48.5617ZM24.8792 48.3858C24.4781 48.3637 24.1319 48.7308 24.1058 49.206C24.0811 49.6813 24.3845 50.0847 24.7849 50.1068C25.1866 50.129 25.5336 49.7612 25.5596 49.2859C25.5857 48.8107 25.2816 48.408 24.8792 48.3858ZM37.8439 45.8203C37.4415 45.7982 37.0952 46.166 37.0692 46.6413C37.0431 47.1165 37.3472 47.5192 37.749 47.5414C38.1507 47.5635 38.4962 47.1964 38.5216 46.7211C38.5477 46.2459 38.2436 45.8425 37.8439 45.8203ZM34.6461 45.6445C34.2464 45.6223 33.8988 45.9895 33.8728 46.4647C33.8474 46.94 34.1515 47.3434 34.5532 47.3655C34.9536 47.387 35.2999 47.0205 35.3259 46.5446C35.352 46.0694 35.0479 45.6666 34.6461 45.6445ZM31.4504 45.4686C31.0494 45.4465 30.7031 45.8136 30.6771 46.2889C30.651 46.7641 30.9551 47.1668 31.3562 47.189C31.7572 47.2111 32.1048 46.844 32.1309 46.3687C32.1556 45.8935 31.8521 45.4908 31.4504 45.4686ZM28.254 45.2921C27.853 45.2706 27.5074 45.6378 27.4813 46.1123C27.4559 46.5876 27.7601 46.991 28.1598 47.0131C28.5615 47.0353 28.9071 46.6681 28.9331 46.1929C28.9606 45.7177 28.6551 45.3142 28.254 45.2921ZM25.059 45.1162C24.6566 45.0941 24.3103 45.4612 24.2843 45.9365C24.2582 46.4117 24.5623 46.8151 24.9641 46.8373C25.3658 46.8594 25.7114 46.4916 25.7374 46.0163C25.7628 45.5418 25.4587 45.1384 25.059 45.1162ZM31.6296 42.1991C31.2278 42.1769 30.8823 42.5441 30.8549 43.0193C30.8295 43.4945 31.1336 43.8979 31.5346 43.9194C31.937 43.9422 32.2819 43.5744 32.308 43.0992C32.3341 42.6239 32.0299 42.2212 31.6296 42.1991ZM28.4325 42.0232C28.0314 42.0004 27.6852 42.3682 27.6591 42.8434C27.6331 43.3187 27.9372 43.7214 28.3389 43.7436C28.7393 43.7657 29.0862 43.3985 29.1123 42.9233C29.1377 42.4481 28.8336 42.0447 28.4325 42.0232ZM25.9159 42.7474C25.8912 43.2227 25.5436 43.5898 25.1432 43.5677C24.7415 43.5455 24.4373 43.1428 24.4634 42.6676C24.4888 42.1923 24.8364 41.8245 25.2361 41.8467C25.6378 41.8688 25.942 42.2722 25.9159 42.7474Z" fill="#171717"/>
</g>
<path fill-rule="evenodd" clip-rule="evenodd" d="M73.8051 136.285C79.4071 136.285 83.8889 140.598 83.8889 145.956C83.8889 151.313 79.4071 155.572 73.8051 155.572C68.2031 155.572 63.7494 151.313 63.7494 145.956C63.7494 140.598 68.2031 136.285 73.8051 136.285ZM52.851 136.286C55.6517 136.286 57.7252 137.116 59.6308 138.777C59.8828 138.991 59.8828 139.312 59.6582 139.527L57.4725 141.697C57.2767 141.884 56.9685 141.884 56.7727 141.697C55.7359 140.812 54.3643 140.331 52.9914 140.331C49.8271 140.331 47.5017 142.848 47.5017 145.849C47.5017 148.822 49.8552 151.286 53.0195 151.286C54.3369 151.286 55.764 150.831 56.7727 150C56.9685 149.84 57.3328 149.84 57.5013 150.027L59.6863 152.25C59.8828 152.438 59.8548 152.787 59.6582 152.973C57.7532 154.741 55.3436 155.572 52.851 155.572C47.249 155.572 42.7398 151.313 42.7398 145.955C42.7398 140.598 47.249 136.286 52.851 136.286ZM73.8051 140.571C70.7531 140.571 68.2311 143.009 68.2311 145.956C68.2311 148.875 70.7531 151.286 73.8051 151.286C76.8859 151.286 79.4071 148.875 79.4071 145.956C79.4071 143.009 76.8859 140.571 73.8051 140.571ZM84.7077 102.398C89.7663 102.398 93.8684 106.517 93.8684 111.597C93.8684 115.19 91.8117 118.293 88.8225 119.807L93.8076 128.003C94.194 128.639 93.7381 129.453 92.9968 129.453H89.1574C88.6701 129.453 88.2209 129.189 87.985 128.761L83.5714 120.796H80.0435V128.236C80.0435 128.909 79.5007 129.453 78.8323 129.453H75.2883C74.6186 129.453 74.0758 128.909 74.0758 128.236V103.616C74.0758 102.943 74.6186 102.398 75.2883 102.398H84.7077ZM54.83 102.398C59.4735 102.398 63.236 105.547 63.236 109.433C63.236 111.737 61.9059 113.777 59.8605 115.06C62.8911 116.284 64.9886 118.873 64.9886 121.878C64.9886 126.062 60.9347 129.453 55.9355 129.453H45.7501C45.0811 129.453 44.5383 128.909 44.5383 128.236V103.616C44.5383 102.943 45.0811 102.398 45.7501 102.398H54.83ZM114.055 101.722L126.537 128.1C126.834 128.728 126.377 129.453 125.684 129.453H122.06C121.54 129.453 121.066 129.153 120.843 128.682L117.269 120.261C117.269 120.261 117.244 120.266 117.196 120.278L117.108 120.301C116.168 120.55 111.268 122.064 107.309 127.425L106.776 128.682C106.552 129.153 106.078 129.453 105.558 129.453H101.935C101.242 129.453 100.785 128.728 101.084 128.1L113.564 101.722H114.055ZM4.75521 102.398C5.42497 102.398 5.96772 102.943 5.96772 103.616V124.043H17.1517C17.8215 124.043 18.3649 124.588 18.3649 125.26V128.236C18.3649 128.909 17.8215 129.453 17.1517 129.453H6.10352e-05V103.616C6.10352e-05 102.943 0.542819 102.398 1.21124 102.398H4.75521ZM33.4245 102.398V128.236C33.4245 128.909 32.8817 129.453 32.2126 129.453H27.4568V103.616C27.4568 102.943 28.0002 102.398 28.67 102.398H33.4245ZM55.1401 117.549H50.5073V124.043H55.1401C57.2824 124.043 59.0196 122.589 59.0196 120.796C59.0196 119.003 57.2824 117.549 55.1401 117.549ZM113.811 112.113L110.861 119.057C113.315 116.986 115.414 116.246 115.539 116.203L115.545 116.201L113.811 112.113ZM83.3194 106.997H80.0435V116.197H83.3194C85.8501 116.197 87.8994 114.137 87.8994 111.597C87.8994 109.057 85.8501 106.997 83.3194 106.997ZM53.687 106.997H50.5073V112.95H53.687C55.6515 112.95 57.245 111.617 57.245 109.974C57.245 108.33 55.6515 106.997 53.687 106.997ZM45.7582 66.959C53.5707 66.959 59.9026 73.3182 59.9026 81.1629C59.9026 85.0776 58.3251 88.621 55.7745 91.1905L56.9662 92.6155C57.3339 93.0572 57.2764 93.7157 56.8372 94.0869L53.7117 96.7194L51.538 94.1177C49.772 94.9138 47.8196 95.3669 45.7582 95.3669C37.947 95.3669 31.6137 89.0076 31.6137 81.1629C31.6137 73.3182 37.947 66.959 45.7582 66.959ZM74.4976 67.6349C75.1673 67.6349 75.7108 68.18 75.7108 68.8525V84.2741C75.7108 87.8323 77.8096 89.9561 81.3269 89.9561C84.8454 89.9561 86.9443 87.8323 86.9443 84.2741V68.8525C86.9443 68.18 87.4877 67.6349 88.1568 67.6349H91.7001C92.3692 67.6349 92.9126 68.18 92.9126 68.8525V84.2741C92.9126 90.4004 88.6621 95.3669 81.3275 95.3669C73.9929 95.3669 69.7424 90.4004 69.7424 84.2741V68.8525C69.7424 68.18 70.2845 67.6349 70.9543 67.6349H74.4976ZM114.055 66.959L126.537 93.3371C126.834 93.9654 126.377 94.6903 125.684 94.6903H122.06C121.54 94.6903 121.066 94.3902 120.843 93.9184L117.269 85.4978C117.269 85.4978 111.708 86.7046 107.309 92.6611L106.776 93.9184C106.552 94.3902 106.078 94.6903 105.558 94.6903H101.935C101.242 94.6903 100.785 93.9654 101.084 93.3371L113.564 66.959H114.055ZM13.0637 66.959L25.5458 93.3371C25.8432 93.9654 25.386 94.6903 24.6935 94.6903H21.07C20.55 94.6903 20.0761 94.3902 19.8528 93.9184L19.3188 92.6611C14.9199 86.7046 9.35996 85.4978 9.35996 85.4978L5.78458 93.9184C5.56132 94.3902 5.08741 94.6903 4.56738 94.6903H0.943872C0.251387 94.6903 -0.205144 93.9654 0.0929716 93.3371L12.5744 66.959H13.0637ZM45.7582 72.3698C41.2416 72.3698 37.582 76.3066 37.582 81.1629C37.582 86.0193 41.2416 89.9561 45.7582 89.9561C46.47 89.9561 47.1578 89.848 47.8162 89.6641L46.72 88.3525C46.3511 87.9102 46.4092 87.2517 46.8484 86.8812L49.9739 84.2479L52.0681 86.7556C53.2358 85.2353 53.935 83.2874 53.935 81.1629C53.935 76.3066 50.274 72.3698 45.7582 72.3698ZM113.811 77.3497L110.861 84.2942C113.315 82.2224 115.414 81.4824 115.539 81.4395L115.545 81.4375L113.811 77.3497ZM12.819 77.3497L11.0832 81.4375C11.0832 81.4375 13.2388 82.1577 15.7674 84.2942L12.819 77.3497Z" fill="black"/>
</g>
<defs>
<clipPath id="clip0_12_2">
<rect width="127" height="156" fill="white"/>
</clipPath>
</defs>
</svg>
