<svg width="95" height="45" viewBox="0 0 95 45" fill="none" xmlns="http://www.w3.org/2000/svg">
<g clip-path="url(#clip0_117_2)">
<mask id="mask0_117_2" style="mask-type:luminance" maskUnits="userSpaceOnUse" x="0" y="0" width="95" height="45">
<path d="M95 0H0.263184V45H95V0Z" fill="white"/>
</mask>
<g mask="url(#mask0_117_2)">
<path d="M10.3687 34.8871C7.67867 34.8871 5.57287 32.6687 5.57287 29.8369C5.57287 27.0051 7.67867 24.7888 10.3687 24.7888C13.1008 24.7888 15.0899 26.9137 15.0899 29.8401C15.0899 32.8137 13.148 34.8903 10.3687 34.8903V34.8871ZM11.5792 20.3626C9.34418 20.3626 7.48112 21.017 6.04152 22.3079L5.57287 22.728V21.915C5.57315 21.6491 5.46786 21.3939 5.28012 21.2054C5.09238 21.017 4.83752 20.9107 4.57146 20.9098H1.2667C1.00063 20.9101 0.745548 21.0159 0.557413 21.2039C0.369278 21.392 0.263462 21.647 0.263184 21.9129V43.997C0.263462 44.2629 0.369278 44.5179 0.557413 44.706C0.745548 44.894 1.00063 44.9998 1.2667 45.0001H4.57146C4.83752 44.9998 5.09261 44.894 5.28074 44.706C5.46887 44.5179 5.57469 44.2629 5.57497 43.997V36.9469L6.04362 37.367C7.48322 38.658 9.34628 39.3134 11.5813 39.3134C16.5474 39.3134 20.2914 35.239 20.2914 29.8359C20.2914 24.4328 16.5505 20.3594 11.5792 20.3594" fill="black"/>
<path d="M27.0587 28.0271L27.1637 27.6658C27.7942 25.5252 29.7077 24.5662 31.3239 24.5662C33.3036 24.5662 34.7537 25.6974 35.3022 27.67L35.401 28.0271H27.0587ZM31.3249 20.0779C25.9658 20.0779 21.563 24.0399 21.563 29.8369C21.563 35.6696 25.9669 39.5949 31.2881 39.5949C35.0878 39.5949 38.173 38.0792 39.9047 34.9407C39.9735 34.8146 40.0118 34.674 40.0164 34.5304C40.021 34.3869 39.9918 34.2442 39.9312 34.1139C39.8706 33.9836 39.7802 33.8694 39.6674 33.7804C39.5545 33.6914 39.4224 33.6301 39.2816 33.6015L35.9505 32.9208C35.7492 32.8788 35.5401 32.8945 35.3474 32.966C35.1546 33.0376 34.9859 33.1621 34.8608 33.3252C33.8731 34.6392 32.4955 34.9008 31.2881 34.9008C29.3063 34.9008 27.8016 33.5426 27.3245 31.3421H39.5485C39.8891 31.3418 40.2157 31.2064 40.4565 30.9655C40.6973 30.7246 40.8325 30.398 40.8325 30.0575V29.838C40.7275 23.8215 36.539 20.079 31.327 20.079" fill="black"/>
<path d="M52.0287 34.887C49.2494 34.887 47.3075 32.8104 47.3075 29.8368C47.3075 26.9105 49.2935 24.7866 52.0287 24.7866C54.7188 24.7866 56.8246 27.005 56.8246 29.8368C56.8246 32.6686 54.723 34.887 52.0287 34.887ZM61.1308 20.9097H57.8281C57.562 20.91 57.3069 21.0158 57.1188 21.2038C56.9307 21.3919 56.8249 21.6469 56.8246 21.9128V22.7258L56.3559 22.3057C54.9163 21.0148 53.0533 20.3604 50.8182 20.3604C45.8522 20.3604 42.1082 24.4348 42.1082 29.8379C42.1082 35.241 45.8522 39.3154 50.8182 39.3154C53.0533 39.3154 54.9163 38.6599 56.3559 37.369L56.8246 36.9489V37.7629C56.8249 38.0289 56.9307 38.2839 57.1188 38.4719C57.3069 38.66 57.562 38.7658 57.8281 38.766H61.1308C61.3968 38.7658 61.6519 38.66 61.84 38.4719C62.0282 38.2839 62.134 38.0289 62.1343 37.7629V21.9128C62.134 21.6469 62.0282 21.3919 61.84 21.2038C61.6519 21.0158 61.3968 20.91 61.1308 20.9097Z" fill="black"/>
<path d="M79.8445 34.6622H70.9022L80.0998 24.8129C80.3695 24.5258 80.5198 24.1469 80.5201 23.7531V21.9128C80.5201 21.647 80.4145 21.392 80.2266 21.2039C80.0386 21.0158 79.7836 20.91 79.5177 20.9097H65.604C65.3381 20.91 65.0831 21.0158 64.8951 21.2039C64.7072 21.392 64.6016 21.647 64.6016 21.9128V24.0031C64.6016 24.2689 64.7072 24.5239 64.8951 24.712C65.0831 24.9001 65.3381 25.0059 65.604 25.0062H73.9926L64.7949 34.9301C64.5283 35.217 64.3804 35.5942 64.3809 35.9857V37.7608C64.3812 38.0268 64.487 38.2818 64.6751 38.4698C64.8633 38.6579 65.1183 38.7637 65.3844 38.7639H79.8445C80.1104 38.7634 80.3654 38.6575 80.5534 38.4695C80.7415 38.2815 80.8474 38.0267 80.848 37.7608V35.6695C80.8474 35.4037 80.7415 35.1489 80.5534 34.9609C80.3654 34.7729 80.1104 34.667 79.8445 34.6664" fill="black"/>
<path d="M82.7151 20.4707V37.7608C82.7151 37.9294 82.7484 38.0963 82.8129 38.252C82.8774 38.4077 82.972 38.5492 83.0912 38.6684C83.2105 38.7876 83.352 38.8822 83.5078 38.9467C83.6636 39.0112 83.8306 39.0444 83.9992 39.0444H87.3029C87.4715 39.0444 87.6385 39.0112 87.7943 38.9467C87.9501 38.8822 88.0917 38.7876 88.2109 38.6684C88.3301 38.5492 88.4247 38.4077 88.4892 38.252C88.5538 38.0963 88.587 37.9294 88.587 37.7608V21.54C87.5883 21.787 86.5485 21.8194 85.5363 21.6351C84.5241 21.4508 83.5626 21.0539 82.7151 20.4707Z" fill="black"/>
<path d="M94.9958 10.9995C94.9876 10.6686 94.9247 10.3414 94.8098 10.031C94.6748 9.66511 94.4258 9.35215 94.0995 9.13825C93.774 8.93847 93.3891 8.85825 93.0108 8.91137C93.0665 8.841 93.1159 8.76956 93.1758 8.70129C93.3692 8.4555 93.5667 8.20237 93.759 7.93558C93.9696 7.65591 94.154 7.35738 94.3096 7.0438C94.406 6.84335 94.4681 6.62821 94.4935 6.40728C94.5145 6.186 94.4989 5.96279 94.4473 5.74659C94.388 5.50401 94.2724 5.27877 94.11 5.08906C93.9522 4.90654 93.7573 4.75973 93.5383 4.65841C93.1486 4.47958 92.7162 4.41441 92.291 4.47039C92.1848 4.48197 92.0794 4.50092 91.9758 4.52711C91.6903 4.59872 91.4131 4.70012 91.1488 4.82962C91.3294 4.40777 91.4773 3.97269 91.5912 3.52821C91.9065 2.20789 91.4367 1.00102 90.2956 0.818255C89.0104 0.613433 87.8787 1.92324 87.0497 3.03979C86.9446 3.18894 86.8395 3.3423 86.7344 3.49566C86.8297 2.955 86.865 2.40546 86.8395 1.85707C86.7229 0.377099 85.6185 -0.338203 84.3911 0.165975C83.0251 0.724772 82.4619 2.43688 82.0993 3.9074C81.9239 4.6206 81.7841 5.33905 81.6612 6.0596C81.6349 6.02074 81.6055 5.97977 81.5782 5.94091C81.5508 5.90205 81.5046 5.84953 81.4636 5.80646C81.1374 5.44629 80.6954 5.21147 80.2142 5.14263C79.7099 5.0787 79.2008 5.21649 78.7977 5.52601C78.4618 5.79089 78.1947 6.13282 78.0191 6.52282C77.8736 6.85046 77.7623 7.19224 77.687 7.54273C77.4023 8.87565 77.4517 10.1602 77.5715 11.4123C77.6312 12.0515 77.7473 12.6841 77.9182 13.303C78.0917 13.9381 78.3667 14.5411 78.7326 15.0886C78.8003 15.1874 78.9017 15.2583 79.0178 15.288C79.1339 15.3177 79.2569 15.3041 79.3637 15.2499C79.4706 15.1956 79.5541 15.1044 79.5986 14.9931C79.6431 14.8819 79.6457 14.7583 79.6058 14.6453C79.4187 14.1119 79.2781 13.5633 79.1855 13.0057C79.0909 12.4458 79.031 11.8702 78.9869 11.2841C78.8965 10.1182 78.8955 8.93447 79.1477 7.8862C79.2748 7.36101 79.485 6.902 79.7151 6.73919C79.7563 6.70471 79.8041 6.67907 79.8556 6.66389C79.9072 6.64871 79.9613 6.64431 80.0146 6.65096C80.1377 6.67279 80.25 6.73487 80.334 6.82743C80.4002 6.88415 80.5053 7.11418 80.5904 7.36311C80.681 7.62758 80.7582 7.89648 80.8216 8.16876C80.9561 8.72651 81.0643 9.32417 81.1547 9.88717V9.91341C81.1738 10.0193 81.2165 10.1194 81.2797 10.2065V10.2285C81.3213 10.2775 81.3689 10.3209 81.4216 10.3577C81.4943 10.4194 81.5786 10.4658 81.6696 10.4943C81.761 10.521 81.8568 10.5294 81.9515 10.5191C82.0462 10.5088 82.1379 10.48 82.2214 10.4342C82.3049 10.3885 82.3786 10.3267 82.4383 10.2525C82.4979 10.1783 82.5424 10.093 82.5691 10.0016L82.5617 9.9859C82.5804 9.9152 82.5909 9.84261 82.5932 9.76952C82.6268 8.32631 82.7803 7.36101 83.0409 5.9199C83.2426 4.80126 83.4507 3.34649 84.0475 2.3623C84.3628 1.84236 85.174 1.2069 85.4451 2.01988C85.5964 2.4789 85.3453 3.41372 85.2812 3.89269C85.1362 4.96932 84.9785 5.83377 84.8346 6.91145C84.7463 7.52382 84.6717 7.88096 84.6244 8.22968C84.5965 8.39695 84.6249 8.56876 84.7053 8.71809C84.752 8.83372 84.8325 8.93261 84.9362 9.00189C85.0399 9.07116 85.1621 9.1076 85.2868 9.10647C85.4116 9.10534 85.5331 9.06668 85.6355 8.99553C85.738 8.92438 85.8166 8.82405 85.8612 8.70759C85.9457 8.55701 86.012 8.39695 86.0588 8.23073C86.3471 7.15504 86.7812 6.12382 87.3491 5.16574C87.8409 4.32544 88.7814 2.76145 89.6746 2.51881C90.7905 2.2163 89.8206 4.37376 89.4928 5.11952C89.1943 5.73504 88.7572 6.70663 88.442 7.40093C88.264 7.76365 88.1026 8.1313 87.9575 8.50383C87.8062 8.89141 87.6738 9.26639 87.5519 9.68653C87.5039 9.84878 87.5203 10.0233 87.5978 10.1737C87.6754 10.3241 87.808 10.4388 87.9681 10.4938C88.1282 10.5488 88.3034 10.5399 88.457 10.469C88.6107 10.398 88.7311 10.2705 88.7929 10.113V10.1035C88.8928 9.85881 89.0262 9.57835 89.1607 9.31575C89.2952 9.05316 89.4423 8.79058 89.5947 8.53429C89.9005 8.02381 90.2411 7.53494 90.614 7.07112C90.986 6.61316 91.3853 6.17935 91.8035 5.9157C92.2017 5.65731 92.6809 5.60059 93.0161 5.75079C93.0803 5.77406 93.1379 5.81261 93.1839 5.86313C93.2298 5.91364 93.2628 5.97459 93.2798 6.0407C93.3004 6.12875 93.3071 6.21947 93.2998 6.30959C93.2858 6.39663 93.2592 6.48118 93.221 6.56063C93.1021 6.80825 92.9615 7.04481 92.8007 7.26753C92.6315 7.51017 92.4476 7.7528 92.2585 8.00279C91.8749 8.49962 91.4966 9.0164 91.1373 9.53843C90.9565 9.80102 90.78 10.0636 90.6119 10.3367C90.4437 10.6098 90.2767 10.8724 90.1085 11.177L90.0928 11.2054C90.0189 11.3307 89.9979 11.4803 90.0344 11.6211C90.0708 11.762 90.1618 11.8826 90.2872 11.9564C90.4126 12.0302 90.5622 12.0512 90.7031 12.0148C90.844 11.9783 90.9646 11.8874 91.0385 11.7621C91.3275 11.352 91.6567 10.9716 92.021 10.6266C92.1943 10.4618 92.3825 10.3134 92.5832 10.1833C92.744 10.0726 92.9256 9.99548 93.117 9.95648C93.2591 9.93642 93.4037 9.96893 93.5236 10.0479C93.6453 10.1395 93.7326 10.2693 93.7716 10.4165C93.879 10.8376 93.874 11.2795 93.7569 11.698C93.6366 12.1642 93.4505 12.6109 93.2042 13.0246C92.9566 13.4513 92.6672 13.8524 92.3404 14.222C91.6926 14.9596 90.9458 15.604 90.1211 16.1369C89.725 16.3898 89.3097 16.6114 88.8791 16.7996C88.6734 16.8908 88.463 16.9708 88.2486 17.0391C88.0459 17.1046 87.8382 17.1534 87.6276 17.1851C86.7386 17.3353 85.8812 17.2723 85.1109 16.9267C84.3407 16.5812 83.6524 15.9719 83.0965 15.201C82.5362 14.3977 82.1244 13.5005 81.8808 12.5519V12.532C81.8503 12.4152 81.7789 12.3132 81.6796 12.2445C81.5803 12.1759 81.4597 12.1451 81.3396 12.1578C81.2195 12.1706 81.108 12.2259 81.0253 12.3138C80.9426 12.4018 80.8941 12.5164 80.8888 12.637C80.8697 13.2236 80.9297 13.8101 81.0675 14.3806C81.2025 14.9577 81.406 15.5167 81.6738 16.0455C81.9475 16.5945 82.2962 17.1028 82.7099 17.5559C83.1432 18.029 83.6529 18.4259 84.2178 18.7302C84.7939 19.0363 85.4197 19.2383 86.0661 19.3268C86.6975 19.4114 87.3379 19.4033 87.967 19.3027C88.2883 19.2582 88.6049 19.1844 88.9127 19.0821C89.2082 18.9847 89.4968 18.8675 89.7765 18.7313C90.3199 18.4687 90.8324 18.1463 91.3043 17.7702C91.7663 17.4035 92.193 16.9945 92.579 16.5486C92.9611 16.113 93.3102 15.6495 93.6235 15.1621C94.2382 14.18 94.7299 13.1202 94.9401 11.9259C94.9896 11.6197 95.0075 11.3093 94.9937 10.9995" fill="black"/>
</g>
</g>
<defs>
<clipPath id="clip0_117_2">
<rect width="95" height="45" fill="white"/>
</clipPath>
</defs>
</svg>
