<svg width="187" height="60" viewBox="0 0 187 60" fill="none" xmlns="http://www.w3.org/2000/svg">
<path d="M81.9815 43V16.8182H92.8991C94.8594 16.8182 96.5 17.0952 97.821 17.6491C99.1506 18.2031 100.148 18.9787 100.812 19.9759C101.486 20.973 101.822 22.1278 101.822 23.4403C101.822 24.4375 101.614 25.3281 101.196 26.1122C100.778 26.8878 100.203 27.5312 99.4702 28.0426C98.7372 28.554 97.8892 28.9119 96.9261 29.1165V29.3722C97.983 29.4233 98.9588 29.7088 99.8537 30.2287C100.757 30.7486 101.482 31.473 102.027 32.402C102.572 33.3224 102.845 34.4134 102.845 35.6747C102.845 37.081 102.487 38.3381 101.771 39.446C101.055 40.5455 100.02 41.4148 98.6648 42.054C97.3097 42.6847 95.6648 43 93.7301 43H81.9815ZM88.3097 37.8991H92.2216C93.5938 37.8991 94.6037 37.6392 95.2514 37.1193C95.9077 36.5994 96.2358 35.875 96.2358 34.946C96.2358 34.2727 96.0781 33.6932 95.7628 33.2074C95.4474 32.7131 95 32.3338 94.4205 32.0696C93.8409 31.7969 93.1463 31.6605 92.3366 31.6605H88.3097V37.8991ZM88.3097 27.5824H91.8125C92.5028 27.5824 93.1165 27.4673 93.6534 27.2372C94.1903 27.0071 94.608 26.6747 94.9062 26.2401C95.2131 25.8054 95.3665 25.2812 95.3665 24.6676C95.3665 23.7898 95.0554 23.0994 94.4332 22.5966C93.8111 22.0938 92.9716 21.8423 91.9148 21.8423H88.3097V27.5824ZM106.608 43V23.3636H112.859V43H106.608ZM109.74 21.0753C108.862 21.0753 108.108 20.7855 107.477 20.206C106.846 19.6179 106.531 18.9105 106.531 18.0838C106.531 17.2656 106.846 16.5668 107.477 15.9872C108.108 15.3991 108.862 15.1051 109.74 15.1051C110.626 15.1051 111.381 15.3991 112.003 15.9872C112.633 16.5668 112.949 17.2656 112.949 18.0838C112.949 18.9105 112.633 19.6179 112.003 20.206C111.381 20.7855 110.626 21.0753 109.74 21.0753ZM117.558 43V23.3636H123.631V26.9432H123.835C124.193 25.6477 124.777 24.6847 125.587 24.054C126.396 23.4148 127.338 23.0952 128.412 23.0952C128.702 23.0952 129 23.1165 129.307 23.1591C129.614 23.1932 129.899 23.2486 130.163 23.3253V28.7585C129.865 28.6562 129.473 28.5753 128.987 28.5156C128.51 28.456 128.084 28.4261 127.709 28.4261C126.967 28.4261 126.298 28.5923 125.702 28.9247C125.114 29.2486 124.649 29.7045 124.308 30.2926C123.976 30.8722 123.81 31.554 123.81 32.3381V43H117.558ZM139.583 43.2812C138.134 43.2812 136.817 42.9062 135.633 42.1562C134.448 41.4062 133.502 40.2812 132.795 38.7812C132.087 37.2812 131.734 35.419 131.734 33.1946C131.734 30.8849 132.1 28.9844 132.833 27.4929C133.566 26.0014 134.525 24.8977 135.709 24.1818C136.903 23.4659 138.185 23.108 139.557 23.108C140.589 23.108 141.471 23.2869 142.204 23.6449C142.937 23.9943 143.542 24.446 144.019 25C144.496 25.554 144.859 26.1293 145.106 26.7259H145.234V16.8182H151.485V43H145.297V39.8168H145.106C144.841 40.4219 144.466 40.9886 143.981 41.517C143.495 42.0455 142.885 42.4716 142.153 42.7955C141.428 43.1193 140.572 43.2812 139.583 43.2812ZM141.756 38.4105C142.515 38.4105 143.162 38.1974 143.699 37.7713C144.236 37.3366 144.65 36.7273 144.939 35.9432C145.229 35.1591 145.374 34.2386 145.374 33.1818C145.374 32.108 145.229 31.1832 144.939 30.4077C144.658 29.6321 144.245 29.0355 143.699 28.6179C143.162 28.2003 142.515 27.9915 141.756 27.9915C140.981 27.9915 140.324 28.2045 139.787 28.6307C139.251 29.0568 138.841 29.6577 138.56 30.4332C138.287 31.2088 138.151 32.125 138.151 33.1818C138.151 34.2386 138.292 35.1591 138.573 35.9432C138.854 36.7273 139.259 37.3366 139.787 37.7713C140.324 38.1974 140.981 38.4105 141.756 38.4105ZM156.158 43V23.3636H162.41V43H156.158ZM159.291 21.0753C158.413 21.0753 157.658 20.7855 157.028 20.206C156.397 19.6179 156.082 18.9105 156.082 18.0838C156.082 17.2656 156.397 16.5668 157.028 15.9872C157.658 15.3991 158.413 15.1051 159.291 15.1051C160.177 15.1051 160.931 15.3991 161.553 15.9872C162.184 16.5668 162.499 17.2656 162.499 18.0838C162.499 18.9105 162.184 19.6179 161.553 20.206C160.931 20.7855 160.177 21.0753 159.291 21.0753ZM176.288 43.3707C174.234 43.3707 172.461 42.9659 170.97 42.1562C169.487 41.3381 168.345 40.1747 167.544 38.6662C166.751 37.1491 166.355 35.3466 166.355 33.2585C166.355 31.2301 166.755 29.4574 167.556 27.9403C168.357 26.4148 169.487 25.2301 170.944 24.3864C172.401 23.5341 174.119 23.108 176.096 23.108C177.494 23.108 178.772 23.3253 179.931 23.7599C181.09 24.1946 182.092 24.8381 182.936 25.6903C183.779 26.5426 184.436 27.5952 184.904 28.848C185.373 30.0923 185.607 31.5199 185.607 33.1307V34.6903H168.541V31.0597H179.791C179.782 30.3949 179.625 29.8026 179.318 29.2827C179.011 28.7628 178.589 28.358 178.052 28.0682C177.524 27.7699 176.914 27.6207 176.224 27.6207C175.525 27.6207 174.899 27.7784 174.345 28.0938C173.791 28.4006 173.352 28.8224 173.028 29.3594C172.704 29.8878 172.534 30.4886 172.517 31.1619V34.8565C172.517 35.6577 172.674 36.3608 172.99 36.9659C173.305 37.5625 173.752 38.027 174.332 38.3594C174.911 38.6918 175.602 38.858 176.403 38.858C176.957 38.858 177.46 38.7812 177.911 38.6278C178.363 38.4744 178.751 38.2486 179.075 37.9503C179.399 37.652 179.642 37.2855 179.803 36.8509L185.544 37.017C185.305 38.304 184.781 39.4247 183.971 40.3793C183.17 41.3253 182.117 42.0625 180.813 42.5909C179.509 43.1108 178.001 43.3707 176.288 43.3707Z" fill="#2965FE"/>
<g clip-path="url(#clip0_1034_41)">
<path d="M59.9234 6.27127L45.6266 53.1459C45.2699 54.3083 43.8719 54.7664 42.8973 54.0447C41.993 53.3736 19.0207 36.3241 17.776 35.4003L1.12382 28.9598C0.445311 28.6973 -0.00116956 28.0445 2.30127e-06 27.3168C0.00117417 26.5891 0.451171 25.9375 1.13085 25.6785L57.6148 4.11621C58.2973 3.85465 59.0782 4.04285 59.5683 4.60487C59.9632 5.05839 60.1015 5.68768 59.9234 6.27127Z" fill="#2965FE"/>
<path d="M59.9233 6.27125L45.6266 53.1459C45.2698 54.3083 43.8718 54.7663 42.8973 54.0447L20.626 37.5155L59.5682 4.60486C59.9632 5.05837 60.1015 5.68766 59.9233 6.27125Z" fill="#2965FE"/>
<path d="M59.5179 6.96735L27.7029 40.5296L20.3202 55.1814C19.9499 55.9134 19.1263 56.2892 18.3432 56.1002C17.551 55.9127 16.9921 55.2049 16.9921 54.3904V33.8476C16.9921 33.2781 17.2675 32.7449 17.7315 32.4144L57.2234 4.32596C57.9605 3.80097 58.9753 3.92167 59.5683 4.60487C60.1624 5.28807 60.1402 6.31111 59.5179 6.96735Z" fill="#9CE7C2"/>
<path d="M59.5179 6.96734L27.7029 40.5296L20.3202 55.1814C19.9499 55.9134 19.1263 56.2892 18.3432 56.1002C17.551 55.9127 16.9921 55.2048 16.9921 54.3904L20.626 37.5155L59.5683 4.60486C60.1624 5.28806 60.1402 6.31109 59.5179 6.96734Z" fill="#50D592"/>
</g>
<defs>
<clipPath id="clip0_1034_41">
<rect width="60" height="60" fill="white"/>
</clipPath>
</defs>
</svg>
