<svg xmlns="http://www.w3.org/2000/svg" xmlns:xlink="http://www.w3.org/1999/xlink" width="304" height="57" viewBox="0 0 304 57"><defs><clipPath id="a"><rect width="304" height="57"/></clipPath></defs><g clip-path="url(#a)"><path d="M297.97,2.651A21.285,21.285,0,0,0,285.926.082a11.962,11.962,0,0,0-11.12,10.306c-.463,3.031-.463,5.28-.427,10.629h-4.111a1.113,1.113,0,0,0-1.107,1.105v7.06a1.111,1.111,0,0,0,1.107,1.105h4.111V55.359a1.1,1.1,0,0,0,1.071,1.069h8.22a1.078,1.078,0,0,0,.758-.314,1.063,1.063,0,0,0,.315-.756V30.287h7.973a1.111,1.111,0,0,0,1.107-1.105v-7.06a1.111,1.111,0,0,0-1.107-1.105h-7.937c0-2.354-.107-4.567.036-6.777a4.933,4.933,0,0,1,3.467-4.813,7.261,7.261,0,0,1,5.826.641c1.323.749,1.684.641,2.432-.677,1.071-1.89,1.18-2.105,2.254-4.031C299.544,3.933,299.435,3.469,297.97,2.651ZM115.494.546h-7.686a1.315,1.315,0,0,0-1.322,1.321c0,.785.678,2.78.858,4.385a54.751,54.751,0,0,1,.215,7.2V55.287a1.072,1.072,0,0,0,1.071,1.069h8.22a1.1,1.1,0,0,0,1.074-1.069V2.972A2.407,2.407,0,0,0,115.494.546Zm146.946,0h-7.686a1.324,1.324,0,0,0-.935.386,1.262,1.262,0,0,0-.285.429,1.31,1.31,0,0,0-.1.506c0,.785.677,2.78.857,4.385a55.344,55.344,0,0,1,.214,7.2V55.287a1.074,1.074,0,0,0,1.071,1.069H263.8a1.1,1.1,0,0,0,1.074-1.069V2.972A2.387,2.387,0,0,0,262.44.546ZM143.267,19.376c-11.153,0-19.3,7.952-19.3,18.828,0,10.806,8.329,18.83,19.41,18.761,11.116-.072,19.266-8.024,19.23-18.83C162.6,27.256,154.491,19.412,143.267,19.376Zm.036,28.816a9.605,9.605,0,0,1-9.9-9.952,9.779,9.779,0,0,1,9.9-10.163c5.72,0,9.866,4.244,9.866,10.129C153.133,44.053,149.056,48.225,143.3,48.191ZM39.178.582H30.958a1.1,1.1,0,0,0-1.073,1.069V23.691H10.366V1.651A1.054,1.054,0,0,0,9.293.582H1.074A1.075,1.075,0,0,0,0,1.651V55.359a1.075,1.075,0,0,0,1.071,1.069H9.293a1.053,1.053,0,0,0,1.074-1.069V33.318H29.882V55.359a1.075,1.075,0,0,0,1.071,1.069h8.222a1.052,1.052,0,0,0,1.073-1.069V1.651A1.075,1.075,0,0,0,39.178.582ZM97.3.546H89.613A1.317,1.317,0,0,0,88.29,1.866c0,.785.68,2.78.858,4.385a54.45,54.45,0,0,1,.216,7.2V55.287a1.073,1.073,0,0,0,1.071,1.069h8.222a1.1,1.1,0,0,0,1.074-1.069V2.972A2.409,2.409,0,0,0,97.3.546ZM81.214,45.23c-.429-.392-.573-.533-1-.89-1.359-1.213-1.678-1.141-2.967.072-4.86,4.954-15.619,6.455-19.554-.787.539-.105,12.226-2.6,17.7-3.744.928-.215,1.857-.428,2.751-.713,2.967-.892,4.433-2.816,3.932-5.813-1.143-6.739-6.039-13.943-16.549-13.943-11.153,0-19.3,7.952-19.3,18.828C46.22,49.045,54.548,57,65.631,57c6.542,0,13.046-3.246,16.048-8.775C82.537,46.727,82.465,46.335,81.214,45.23Zm-9.152-11.8L56.227,36.778c-.822-3.885,2.037-7.808,6.4-8.737S71.2,29.5,72.063,33.426ZM246.428,45.158c-.433-.39-.575-.534-1-.89-1.358-1.213-1.676-1.141-2.966.072-4.862,4.957-15.62,6.455-19.555-.785.539-.108,12.226-2.605,17.695-3.746.929-.213,1.86-.426,2.755-.713,2.964-.89,4.432-2.816,3.931-5.813-1.142-6.739-6.042-13.942-16.549-13.942-11.153,0-19.3,7.952-19.3,18.828,0,10.809,8.327,18.761,19.41,18.761,6.54,0,13.046-3.246,16.048-8.773C247.751,46.658,247.677,46.3,246.428,45.158Zm-9.189-11.8L221.4,36.708c-.822-3.888,2.037-7.811,6.4-8.739C232.2,27.043,236.417,29.467,237.239,33.354ZM186.339,56.5c-6.614,0-12.653-2.675-17.98-7.99a1.1,1.1,0,0,1-.1-1.675c.462-.641,3.179-4.244,4.037-5.421a1.417,1.417,0,0,1,1-.641,1.819,1.819,0,0,1,1.035.464l1.251,1.034a30.437,30.437,0,0,0,2.9,2.282,14.92,14.92,0,0,0,8.256,2.6,14.184,14.184,0,0,0,4.145-.641c3.506-1.069,5.507-4.388,4.541-7.6a6.169,6.169,0,0,0-3.146-3.531c-1.716-.857-3.252-1.6-4.9-2.39-.929-.464-1.893-.926-2.93-1.426a64.424,64.424,0,0,1-10.259-5.921,12.655,12.655,0,0,1-5.363-10.627,14.293,14.293,0,0,1,6.4-11.34,20.513,20.513,0,0,1,11.8-3.316c.429,0,.858,0,1.287.033a24.594,24.594,0,0,1,14.869,5.813c1.179.964,1.251,1.356.288,2.569-.5.641-2.969,3.885-3.719,4.849-.537.677-.858.962-1.215.962a2.455,2.455,0,0,1-1.215-.569,22.069,22.069,0,0,0-9.437-4.172,13.718,13.718,0,0,0-1.68-.108,9.825,9.825,0,0,0-4.217.928,5.3,5.3,0,0,0-3.075,4.136,4.894,4.894,0,0,0,1.965,4.529A22.359,22.359,0,0,0,185.7,22.05c.606.287,1.178.534,1.787.82A74.62,74.62,0,0,1,198.6,28.648c3.68,2.459,5.825,5.134,6.683,8.452A14.744,14.744,0,0,1,197.563,54,22.912,22.912,0,0,1,186.7,56.5Z"/><path d="M298.062,57a5.938,5.938,0,1,0-5.937-5.937A5.937,5.937,0,0,0,298.062,57Z"/></g></svg>