<svg width="145" height="65" viewBox="0 0 145 65" fill="none" xmlns="http://www.w3.org/2000/svg">
<path d="M1.22492 41.1258C1.96359 41.9484 3.17292 42.7204 4.75025 42.7204C6.74759 42.7204 7.38492 41.6458 7.38492 40.7898C7.38492 39.4471 6.02492 39.0778 4.54759 38.6751C2.75292 38.2058 0.754252 37.7018 0.754252 35.5031C0.754252 33.6564 2.39959 32.3978 4.59959 32.3978C6.31025 32.3978 7.63692 32.9684 8.57692 33.9591L7.73825 34.9831C6.89825 34.0591 5.72359 33.6391 4.49825 33.6391C3.15559 33.6391 2.19825 34.3618 2.19825 35.4191C2.19825 36.5431 3.49159 36.8791 4.91825 37.2658C6.74759 37.7524 8.82892 38.3231 8.82892 40.6724C8.82892 42.3004 7.72092 43.9631 4.69959 43.9631C2.75292 43.9631 1.32492 43.2244 0.402252 42.1831L1.22492 41.1258Z" fill="#062258"/>
<path d="M16.3289 42.6196C15.7076 43.325 14.6503 43.9623 13.4423 43.9623C11.7463 43.9623 10.8569 43.1396 10.8569 41.377V35.6543H12.1156V40.9916C12.1156 42.4183 12.8383 42.8383 13.9289 42.8383C14.9196 42.8383 15.8583 42.2676 16.3289 41.613V35.6543H17.5876V43.761H16.3289V42.6196Z" fill="#062258"/>
<path d="M20.1025 46.8498V35.6538H21.3612V36.8631C21.9492 36.0404 22.9559 35.4524 24.0972 35.4524C26.2292 35.4524 27.7065 37.0644 27.7065 39.6991C27.7065 42.3178 26.2292 43.9631 24.0972 43.9631C22.9892 43.9631 22.0159 43.4418 21.3612 42.5351V46.8498H20.1025ZM23.7785 36.5764C22.7879 36.5764 21.7972 37.1644 21.3612 37.8698V41.5284C21.7972 42.2338 22.7879 42.8378 23.7785 42.8378C25.4065 42.8378 26.3799 41.4951 26.3799 39.6991C26.3799 37.9031 25.4065 36.5764 23.7785 36.5764Z" fill="#062258"/>
<path d="M29.7341 46.8498V35.6538H30.9928V36.8631C31.5808 36.0404 32.5875 35.4524 33.7288 35.4524C35.8608 35.4524 37.3381 37.0644 37.3381 39.6991C37.3381 42.3178 35.8608 43.9631 33.7288 43.9631C32.6208 43.9631 31.6475 43.4418 30.9928 42.5351V46.8498H29.7341ZM33.4101 36.5764C32.4195 36.5764 31.4288 37.1644 30.9928 37.8698V41.5284C31.4288 42.2338 32.4195 42.8378 33.4101 42.8378C35.0381 42.8378 36.0115 41.4951 36.0115 39.6991C36.0115 37.9031 35.0381 36.5764 33.4101 36.5764Z" fill="#062258"/>
<path d="M38.8954 39.6993C38.8954 37.35 40.4394 35.4526 42.9074 35.4526C45.374 35.4526 46.918 37.35 46.918 39.6993C46.918 42.0486 45.374 43.9633 42.9074 43.9633C40.4394 43.9633 38.8954 42.0486 38.8954 39.6993ZM45.5927 39.6993C45.5927 38.054 44.6367 36.5766 42.9074 36.5766C41.178 36.5766 40.2047 38.054 40.2047 39.6993C40.2047 41.3606 41.178 42.838 42.9074 42.838C44.6367 42.838 45.5927 41.3606 45.5927 39.6993Z" fill="#062258"/>
<path d="M48.9637 35.654H50.2224V36.9634C50.8771 36.1074 51.8171 35.486 52.9251 35.486V36.778C52.7731 36.7447 52.6224 36.7287 52.4211 36.7287C51.6491 36.7287 50.5917 37.366 50.2224 38.0207V43.7607H48.9637V35.654Z" fill="#062258"/>
<path d="M54.7521 42.0659V36.7619H53.4095V35.6539H54.7521V33.4379H56.0108V35.6539H57.6561V36.7619H56.0108V41.7966C56.0108 42.4019 56.2801 42.8379 56.8335 42.8379C57.1855 42.8379 57.5215 42.6872 57.6895 42.5019L58.0588 43.4419C57.7401 43.7446 57.2868 43.9632 56.5481 43.9632C55.3575 43.9632 54.7521 43.2739 54.7521 42.0659Z" fill="#062258"/>
<path d="M67.3216 35.5028L65.1563 43.7615H63.0589L59.8523 32.5655H62.0509L64.2336 41.1935L66.5496 32.5655H68.1109L70.4269 41.1935L72.5923 32.5655H74.7909L71.6016 43.7615H69.5043L67.3216 35.5028Z" fill="#062258"/>
<path d="M80.4605 42.8884C79.8565 43.5764 78.9165 43.9631 77.8419 43.9631C76.5165 43.9631 75.0219 43.0724 75.0219 41.2764C75.0219 39.4137 76.5165 38.6417 77.8419 38.6417C78.9325 38.6417 79.8739 38.9937 80.4605 39.6817V38.4737C80.4605 37.5337 79.6885 36.9631 78.5645 36.9631C77.6579 36.9631 76.8685 37.2991 76.1632 37.9871L75.4419 36.7617C76.3819 35.8724 77.5565 35.4524 78.8499 35.4524C80.6459 35.4524 82.2232 36.2084 82.2232 38.3897V43.7617H80.4605V42.8884ZM80.4605 40.6897C80.0579 40.1351 79.3032 39.8497 78.5299 39.8497C77.5405 39.8497 76.8019 40.4204 76.8019 41.3111C76.8019 42.1831 77.5405 42.7537 78.5299 42.7537C79.3032 42.7537 80.0579 42.4684 80.4605 41.9151V40.6897Z" fill="#062258"/>
<path d="M84.6372 35.654H86.3999V36.846C87.0039 36.074 87.9772 35.4687 89.0345 35.4687V37.2153C88.8839 37.182 88.6985 37.1647 88.4812 37.1647C87.7425 37.1647 86.7519 37.6687 86.3999 38.2393V43.7607H84.6372V35.654Z" fill="#062258"/>
<path d="M94.2021 35.4526C96.6355 35.4526 98.1968 37.3153 98.1968 39.8673V40.2873H91.9355C92.0701 41.5126 92.9928 42.5193 94.5208 42.5193C95.3101 42.5193 96.2501 42.2006 96.8208 41.6299L97.6261 42.7873C96.8208 43.5593 95.6288 43.9633 94.3368 43.9633C91.9021 43.9633 90.0901 42.2673 90.0901 39.6993C90.0901 37.3499 91.8021 35.4526 94.2021 35.4526ZM91.9195 39.0446H96.4848C96.4515 38.0886 95.7968 36.8966 94.2021 36.8966C92.6915 36.8966 92.0035 38.0539 91.9195 39.0446Z" fill="#062258"/>
<path d="M105.563 38.6583C105.563 37.3997 104.908 37.013 103.918 37.013C103.028 37.013 102.256 37.5503 101.836 38.105V43.761H100.074V32.565H101.836V36.7623C102.374 36.1237 103.431 35.453 104.707 35.453C106.452 35.453 107.326 36.3597 107.326 38.021V43.761H105.563V38.6583Z" fill="#062258"/>
<path d="M109.236 39.6993C109.236 37.3833 110.831 35.4526 113.399 35.4526C116 35.4526 117.577 37.3833 117.577 39.6993C117.577 42.0326 116 43.9633 113.399 43.9633C110.831 43.9633 109.236 42.0326 109.236 39.6993ZM115.749 39.6993C115.749 38.2726 114.909 37.0139 113.399 37.0139C111.905 37.0139 111.065 38.2726 111.065 39.6993C111.065 41.1433 111.905 42.4019 113.399 42.4019C114.909 42.4019 115.749 41.1433 115.749 39.6993Z" fill="#062258"/>
<path d="M124.96 42.687C124.372 43.3416 123.366 43.963 122.09 43.963C120.344 43.963 119.488 43.0563 119.488 41.395V35.6536H121.251V40.7563C121.251 42.0163 121.888 42.4016 122.879 42.4016C123.768 42.4016 124.54 41.8976 124.96 41.3443V35.6536H126.723V43.7616H124.96V42.687Z" fill="#062258"/>
<path d="M129.238 41.4282C129.808 42.0162 130.932 42.5695 131.99 42.5695C133.048 42.5695 133.584 42.1828 133.584 41.5788C133.584 40.8735 132.728 40.6228 131.739 40.4042C130.346 40.1015 128.684 39.7322 128.684 37.9202C128.684 36.5935 129.826 35.4522 131.872 35.4522C133.25 35.4522 134.29 35.9388 135.028 36.5935L134.29 37.8362C133.803 37.2815 132.896 36.8628 131.89 36.8628C130.966 36.8628 130.379 37.1975 130.379 37.7682C130.379 38.3895 131.186 38.6082 132.142 38.8268C133.552 39.1282 135.28 39.5308 135.28 41.4442C135.28 42.8708 134.088 43.9628 131.907 43.9628C130.53 43.9628 129.271 43.5255 128.432 42.7042L129.238 41.4282Z" fill="#062258"/>
<path d="M140.8 35.4526C143.233 35.4526 144.794 37.3153 144.794 39.8673V40.2873H138.533C138.668 41.5126 139.59 42.5193 141.118 42.5193C141.908 42.5193 142.848 42.2006 143.418 41.6299L144.224 42.7873C143.418 43.5593 142.226 43.9633 140.934 43.9633C138.5 43.9633 136.688 42.2673 136.688 39.6993C136.688 37.3499 138.4 35.4526 140.8 35.4526ZM138.517 39.0446H143.082C143.049 38.0886 142.394 36.8966 140.8 36.8966C139.289 36.8966 138.601 38.0539 138.517 39.0446Z" fill="#062258"/>
<path d="M0.295959 64.6588H1.38527V59.5202H0.295959V64.6588Z" fill="#062258"/>
<path d="M8.6845 64.659H7.59517V60.427H6.2005V59.5203H10.0805V60.427H8.6845V64.659Z" fill="#062258"/>
<path d="M23.8209 63.2323C23.8209 63.6963 23.6543 64.0616 23.3196 64.3283C22.9863 64.5963 22.5223 64.7296 21.9263 64.7296C21.3783 64.7296 20.8929 64.627 20.4716 64.4203V63.4083C20.8183 63.563 21.1116 63.671 21.3516 63.735C21.5916 63.7976 21.8116 63.8296 22.0103 63.8296C22.2503 63.8296 22.4329 63.7843 22.5609 63.6923C22.6889 63.6016 22.7516 63.4656 22.7516 63.2843C22.7516 63.1843 22.7236 63.095 22.6676 63.0163C22.6116 62.9376 22.5289 62.8616 22.4196 62.7896C22.3116 62.7163 22.0889 62.6003 21.7543 62.4416C21.4396 62.2936 21.2049 62.1523 21.0476 62.0163C20.8903 61.8803 20.7649 61.7216 20.6716 61.5416C20.5783 61.3616 20.5316 61.1496 20.5316 60.9096C20.5316 60.455 20.6849 60.0976 20.9929 59.8363C21.3009 59.5763 21.7276 59.447 22.2703 59.447C22.5383 59.447 22.7929 59.479 23.0356 59.5416C23.2783 59.6056 23.5316 59.6936 23.7969 59.8083L23.4449 60.6563C23.1703 60.5443 22.9436 60.4656 22.7649 60.4203C22.5849 60.3763 22.4089 60.3536 22.2356 60.3536C22.0289 60.3536 21.8716 60.4016 21.7609 60.4976C21.6503 60.5936 21.5956 60.719 21.5956 60.8736C21.5956 60.9696 21.6183 61.0536 21.6623 61.1256C21.7076 61.1963 21.7783 61.2656 21.8756 61.3323C21.9729 61.399 22.2023 61.519 22.5663 61.6923C23.0463 61.923 23.3756 62.1523 23.5543 62.383C23.7316 62.6136 23.8209 62.8976 23.8209 63.2323Z" fill="#062258"/>
<path d="M31.7347 64.659H28.776V59.5203H31.7347V60.4136H29.8653V61.5416H31.604V62.4336H29.8653V63.759H31.7347V64.659Z" fill="#062258"/>
<path d="M37.9201 62.6873V64.6593H36.8308V59.5206H38.3281C39.0268 59.5206 39.5428 59.6473 39.8788 59.9019C40.2135 60.1566 40.3801 60.5419 40.3801 61.0606C40.3801 61.3619 40.2975 61.6313 40.1308 61.8673C39.9655 62.1019 39.7295 62.2873 39.4241 62.4206C40.1975 63.5753 40.7015 64.3219 40.9361 64.6593H39.7268L38.5001 62.6873H37.9201ZM37.9201 61.8019H38.2721C38.6161 61.8019 38.8708 61.7446 39.0335 61.6299C39.1988 61.5139 39.2801 61.3339 39.2801 61.0886C39.2801 60.8446 39.1975 60.6713 39.0295 60.5673C38.8615 60.4646 38.6028 60.4126 38.2508 60.4126H37.9201V61.8019Z" fill="#062258"/>
<path d="M48.5367 59.5206H49.6367L47.89 64.6593H46.702L44.9593 59.5206H46.0593L47.026 62.5779C47.0793 62.7593 47.1353 62.9686 47.1927 63.2099C47.25 63.4499 47.2847 63.6166 47.2993 63.7099C47.326 63.4953 47.4127 63.1179 47.5633 62.5779L48.5367 59.5206Z" fill="#062258"/>
<path d="M54.308 64.6588H55.396V59.5202H54.308V64.6588Z" fill="#062258"/>
<path d="M62.8967 60.3538C62.486 60.3538 62.1687 60.5071 61.9447 60.8164C61.718 61.1244 61.606 61.5538 61.606 62.1044C61.606 63.2498 62.0367 63.8231 62.8967 63.8231C63.258 63.8231 63.694 63.7324 64.2073 63.5524V64.4658C63.786 64.6418 63.314 64.7298 62.794 64.7298C62.0473 64.7298 61.4753 64.5031 61.0793 64.0498C60.6833 63.5964 60.486 62.9458 60.486 62.0964C60.486 61.5631 60.5833 61.0951 60.7767 60.6924C60.9713 60.2911 61.2513 59.9831 61.6153 59.7684C61.9793 59.5538 62.406 59.4471 62.8967 59.4471C63.3953 59.4471 63.8967 59.5671 64.4007 59.8084L64.05 60.6951C63.8567 60.6031 63.6633 60.5231 63.47 60.4551C63.2753 60.3871 63.0847 60.3538 62.8967 60.3538Z" fill="#062258"/>
<path d="M72.283 64.659H69.3244V59.5203H72.283V60.4136H70.4137V61.5416H72.1524V62.4336H70.4137V63.759H72.283V64.659Z" fill="#062258"/>
<path d="M80.4124 63.2323C80.4124 63.6963 80.2457 64.0616 79.9111 64.3283C79.5777 64.5963 79.1137 64.7296 78.5177 64.7296C77.9697 64.7296 77.4844 64.627 77.0631 64.4203V63.4083C77.4097 63.563 77.7031 63.671 77.9431 63.735C78.1831 63.7976 78.4031 63.8296 78.6017 63.8296C78.8417 63.8296 79.0244 63.7843 79.1524 63.6923C79.2804 63.6016 79.3431 63.4656 79.3431 63.2843C79.3431 63.1843 79.3151 63.095 79.2591 63.0163C79.2031 62.9376 79.1204 62.8616 79.0111 62.7896C78.9031 62.7163 78.6804 62.6003 78.3457 62.4416C78.0311 62.2936 77.7964 62.1523 77.6391 62.0163C77.4817 61.8803 77.3564 61.7216 77.2631 61.5416C77.1697 61.3616 77.1231 61.1496 77.1231 60.9096C77.1231 60.455 77.2764 60.0976 77.5844 59.8363C77.8924 59.5763 78.3191 59.447 78.8617 59.447C79.1297 59.447 79.3844 59.479 79.6271 59.5416C79.8697 59.6056 80.1231 59.6936 80.3871 59.8083L80.0364 60.6563C79.7617 60.5443 79.5351 60.4656 79.3564 60.4203C79.1764 60.3763 79.0004 60.3536 78.8271 60.3536C78.6204 60.3536 78.4631 60.4016 78.3524 60.4976C78.2417 60.5936 78.1871 60.719 78.1871 60.8736C78.1871 60.9696 78.2097 61.0536 78.2537 61.1256C78.2991 61.1963 78.3697 61.2656 78.4671 61.3323C78.5644 61.399 78.7937 61.519 79.1577 61.6923C79.6377 61.923 79.9671 62.1523 80.1457 62.383C80.3231 62.6136 80.4124 62.8976 80.4124 63.2323Z" fill="#062258"/>
<path d="M94.22 64.659H91.2613V59.5203H94.22V60.4136H92.3507V61.5416H94.0893V62.4336H92.3507V63.759H94.22V64.659Z" fill="#062258"/>
<path d="M103.47 64.659H102.226L101.031 62.715L99.835 64.659H98.6684L100.374 62.0096L98.7777 59.5203H99.9804L101.087 61.3696L102.172 59.5203H103.347L101.734 62.0683L103.47 64.659Z" fill="#062258"/>
<path d="M111.689 61.1235C111.689 61.6768 111.517 62.0995 111.171 62.3915C110.825 62.6848 110.333 62.8315 109.697 62.8315H109.229V64.6595H108.14V59.5208H109.78C110.404 59.5208 110.877 59.6542 111.203 59.9235C111.527 60.1915 111.689 60.5915 111.689 61.1235ZM109.229 61.9382H109.588C109.923 61.9382 110.173 61.8728 110.34 61.7408C110.507 61.6075 110.589 61.4155 110.589 61.1622C110.589 60.9062 110.52 60.7182 110.38 60.5955C110.241 60.4742 110.023 60.4128 109.725 60.4128H109.229V61.9382Z" fill="#062258"/>
<path d="M119.643 64.659H116.684V59.5203H119.643V60.4136H117.773V61.5416H119.512V62.4336H117.773V63.759H119.643V64.659Z" fill="#062258"/>
<path d="M125.827 62.6873V64.6593H124.738V59.5206H126.235C126.934 59.5206 127.45 59.6473 127.786 59.9019C128.121 60.1566 128.287 60.5419 128.287 61.0606C128.287 61.3619 128.205 61.6313 128.038 61.8673C127.873 62.1019 127.637 62.2873 127.331 62.4206C128.105 63.5753 128.609 64.3219 128.843 64.6593H127.634L126.407 62.6873H125.827ZM125.827 61.8019H126.179C126.523 61.8019 126.778 61.7446 126.941 61.6299C127.106 61.5139 127.187 61.3339 127.187 61.0886C127.187 60.8446 127.105 60.6713 126.937 60.5673C126.769 60.4646 126.51 60.4126 126.158 60.4126H125.827V61.8019Z" fill="#062258"/>
<path d="M135.495 64.659H134.406V60.427H133.011V59.5203H136.891V60.427H135.495V64.659Z" fill="#062258"/>
<path d="M144.739 63.2323C144.739 63.6963 144.572 64.0616 144.237 64.3283C143.904 64.5963 143.44 64.7296 142.844 64.7296C142.296 64.7296 141.811 64.627 141.389 64.4203V63.4083C141.736 63.563 142.029 63.671 142.269 63.735C142.509 63.7976 142.729 63.8296 142.928 63.8296C143.168 63.8296 143.351 63.7843 143.479 63.6923C143.607 63.6016 143.669 63.4656 143.669 63.2843C143.669 63.1843 143.641 63.095 143.585 63.0163C143.529 62.9376 143.447 62.8616 143.337 62.7896C143.229 62.7163 143.007 62.6003 142.672 62.4416C142.357 62.2936 142.123 62.1523 141.965 62.0163C141.808 61.8803 141.683 61.7216 141.589 61.5416C141.496 61.3616 141.449 61.1496 141.449 60.9096C141.449 60.455 141.603 60.0976 141.911 59.8363C142.219 59.5763 142.645 59.447 143.188 59.447C143.456 59.447 143.711 59.479 143.953 59.5416C144.196 59.6056 144.449 59.6936 144.715 59.8083L144.363 60.6563C144.088 60.5443 143.861 60.4656 143.683 60.4203C143.503 60.3763 143.327 60.3536 143.153 60.3536C142.947 60.3536 142.789 60.4016 142.679 60.4976C142.568 60.5936 142.513 60.719 142.513 60.8736C142.513 60.9696 142.536 61.0536 142.58 61.1256C142.625 61.1963 142.696 61.2656 142.793 61.3323C142.891 61.399 143.12 61.519 143.484 61.6923C143.964 61.923 144.293 62.1523 144.472 62.383C144.649 62.6136 144.739 62.8976 144.739 63.2323Z" fill="#062258"/>
<path d="M57.5152 21.0228C57.5152 24.2748 54.8792 26.9095 51.6285 26.9095C48.3765 26.9095 45.7405 24.2748 45.7405 21.0228C45.7405 17.7708 48.3765 15.1362 51.6285 15.1362C54.8792 15.1362 57.5152 17.7708 57.5152 21.0228Z" fill="#167CC1"/>
<path d="M47.1308 8.31339C47.1308 10.7614 45.1468 12.7454 42.6988 12.7454C40.2508 12.7454 38.2655 10.7614 38.2655 8.31339C38.2655 5.86539 40.2508 3.88139 42.6988 3.88139C45.1468 3.88139 47.1308 5.86539 47.1308 8.31339Z" fill="#167CC1"/>
<path d="M33.6979 2.96401C33.6979 4.60134 32.3712 5.92801 30.7339 5.92801C29.0979 5.92801 27.7712 4.60134 27.7712 2.96401C27.7712 1.32668 29.0979 8.72429e-06 30.7339 8.72429e-06C32.3712 8.72429e-06 33.6979 1.32668 33.6979 2.96401Z" fill="#167CC1"/>
<path d="M144.817 52.9322H0V50.7562H144.817V52.9322Z" fill="#167CC1"/>
</svg>
