<svg width="1078" height="210" viewBox="0 0 1078 210" fill="none" xmlns="http://www.w3.org/2000/svg">
<path d="M1007.34 209.6C963.24 209.6 929.94 179.9 929.94 133.4C929.94 91.4 960.84 57.5 1004.94 57.5C1048.14 57.5 1077.54 89.9 1077.54 137.3V145.7H969.84C972.24 164 986.94 179.3 1011.54 179.3C1023.84 179.3 1040.94 173.9 1050.24 164.9L1067.04 189.5C1052.64 202.7 1029.84 209.6 1007.34 209.6ZM1040.64 119.9C1039.74 106.1 1030.14 87.8 1004.94 87.8C981.24 87.8 971.04 105.5 969.24 119.9H1040.64Z" fill="white"/>
<path d="M801.458 206H763.058V94.4004H739.058V61.1004H763.058V53.3004C763.058 22.4004 782.858 2.90039 811.958 2.90039C825.758 2.90039 840.458 6.5004 849.758 16.4004L835.358 38.9004C831.458 35.0004 826.358 32.9004 819.458 32.9004C808.958 32.9004 801.458 39.8004 801.458 53.3004V61.1004H830.858V94.4004H801.458V206ZM899.558 206H861.158V94.4004H837.158V61.1004H861.158V53.3004C861.158 22.4004 880.958 2.90039 910.058 2.90039C923.858 2.90039 938.558 6.5004 947.858 16.4004L933.458 38.9004C929.558 35.0004 924.458 32.9004 917.558 32.9004C907.058 32.9004 899.558 39.8004 899.558 53.3004V61.1004H928.958V94.4004H899.558V206Z" fill="white"/>
<path d="M709.679 45.4992C697.379 45.4992 686.879 35.2992 686.879 22.6992C686.879 10.0992 697.379 0.199219 709.679 0.199219C722.279 0.199219 732.479 10.0992 732.479 22.6992C732.479 35.2992 722.279 45.4992 709.679 45.4992ZM728.879 205.999H690.779V61.0992H728.879V205.999Z" fill="white"/>
<path d="M665 206H626.9V5.90039H665V206Z" fill="white"/>
<path d="M556.693 209.6C511.993 209.6 479.893 178.1 479.893 133.4C479.893 89 511.993 57.5 556.693 57.5C586.393 57.5 604.393 70.4 613.993 83.6L589.093 107C582.193 96.8 571.693 91.4 558.493 91.4C535.393 91.4 519.193 108.2 519.193 133.4C519.193 158.6 535.393 175.7 558.493 175.7C571.693 175.7 582.193 169.7 589.093 160.1L613.993 183.2C604.393 196.7 586.393 209.6 556.693 209.6Z" fill="white"/>
<path d="M463.412 206H425.012V187.4C413.612 201.8 397.712 209.6 380.312 209.6C343.712 209.6 316.112 182 316.112 133.7C316.112 86.3004 343.412 57.5004 380.312 57.5004C397.412 57.5004 413.612 65.0004 425.012 79.7004V5.90039H463.412V206ZM392.012 175.7C404.912 175.7 418.712 168.8 425.012 159.2V107.9C418.712 98.3004 404.912 91.4004 392.012 91.4004C370.412 91.4004 355.412 108.5 355.412 133.7C355.412 158.6 370.412 175.7 392.012 175.7Z" fill="white"/>
<path d="M239.691 209.6C195.591 209.6 162.292 179.9 162.292 133.4C162.292 91.4 193.192 57.5 237.292 57.5C280.492 57.5 309.892 89.9 309.892 137.3V145.7H202.191C204.591 164 219.292 179.3 243.892 179.3C256.192 179.3 273.291 173.9 282.591 164.9L299.392 189.5C284.992 202.7 262.191 209.6 239.691 209.6ZM272.992 119.9C272.092 106.1 262.492 87.8 237.292 87.8C213.592 87.8 203.391 105.5 201.591 119.9H272.992Z" fill="white"/>
<path d="M162.8 206H113.9L74.5998 134.9H43.3998V206H0.799805V5.90039H94.3998C136.1 5.90039 161.6 33.2004 161.6 70.4004C161.6 105.8 139.4 124.7 117.8 129.8L162.8 206ZM88.0998 97.4004C105.2 97.4004 118.1 87.2004 118.1 70.4004C118.1 53.6004 105.2 43.4004 88.0998 43.4004H43.3998V97.4004H88.0998Z" fill="white"/>
</svg>
